<svg width="112" height="30" viewBox="0 0 112 30" fill="none" xmlns="http://www.w3.org/2000/svg">
<g clip-path="url(#clip0_33_131)">
<path d="M0 6.66667C0 2.98477 2.98477 0 6.66667 0H30V2.22222C30 5.90412 27.0152 8.88889 23.3333 8.88889H0V6.66667Z" fill="white"/>
<path d="M0 17.037C0 13.3551 2.98477 10.3704 6.66667 10.3704H19.6296V12.963C19.6296 16.6449 16.6449 19.6296 12.963 19.6296H0V17.037Z" fill="white"/>
<path d="M0 27.7778C0 24.0959 2.98477 21.1111 6.66667 21.1111H11.8519V23.3333C11.8519 27.0152 8.86708 30 5.18519 30H0V27.7778Z" fill="white"/>
<path opacity="0.8" d="M45.9434 29H36.2441L36.1172 27.4258L38.6562 26.7656C38.6901 26.1562 38.707 25.4199 38.707 24.5566C38.724 23.6934 38.7324 22.2546 38.7324 20.2402L38.707 13.6387V9.29688C38.707 6.67318 39.3418 4.56576 40.6113 2.97461C41.8978 1.36654 43.5651 0.5625 45.6133 0.5625C46.7982 0.5625 47.7884 0.816406 48.584 1.32422C49.3796 1.83203 49.7773 2.47526 49.7773 3.25391C49.7773 3.69401 49.625 4.04102 49.3203 4.29492C49.0326 4.54883 48.6686 4.67578 48.2285 4.67578C47.5345 4.67578 46.8405 4.36263 46.1465 3.73633L44.166 1.83203L45.3848 2.08594C43.4212 2.08594 42.4395 4.04102 42.4395 7.95117V11.4551L42.5156 13.6387L42.5664 20.0117C42.5664 21.2474 42.5833 22.5 42.6172 23.7695C42.651 25.0221 42.6849 26.0208 42.7188 26.7656L46.0703 27.375L45.9434 29ZM35.7617 13.6387V12.1406L38.707 11.4043L41.5 11.4551H46.9336V13.6387H35.7617ZM48.6602 29L48.5332 27.375L51.1992 26.7656C51.25 26.3932 51.3008 25.5638 51.3516 24.2773C51.4023 22.974 51.4277 21.332 51.4277 19.3516V14.2227C51.4277 12.9023 51.4193 11.5566 51.4023 10.1855C51.3854 8.79753 51.36 7.57031 51.3262 6.50391C51.3092 5.4375 51.2754 4.70964 51.2246 4.32031L48.2031 3.91406L48.127 2.44141L54.6016 0.689453L55.5156 1.29883C55.4818 2.4668 55.4479 3.60938 55.4141 4.72656C55.3802 5.82682 55.3548 7.0625 55.3379 8.43359C55.321 9.80469 55.3125 11.472 55.3125 13.4355L55.2617 19.8086C55.2617 21.5182 55.2786 23.0332 55.3125 24.3535C55.3464 25.6569 55.3971 26.4609 55.4648 26.7656L58.1055 27.375L58.0293 29H48.6602ZM69.6328 29.3047C66.9245 29.3047 64.7409 28.4668 63.082 26.791C61.4232 25.1152 60.5938 22.9486 60.5938 20.291C60.5938 18.3952 61.0169 16.7617 61.8633 15.3906C62.7096 14.0026 63.8268 12.9362 65.2148 12.1914C66.6198 11.4297 68.1517 11.0488 69.8105 11.0488C72.4004 11.0488 74.4824 11.8783 76.0566 13.5371C77.6478 15.196 78.4434 17.3626 78.4434 20.0371C78.4434 21.7806 78.054 23.3548 77.2754 24.7598C76.4967 26.1478 75.4388 27.2565 74.1016 28.0859C72.7812 28.8984 71.2917 29.3047 69.6328 29.3047ZM70.0391 27.2227C71.3086 27.2227 72.3158 26.6556 73.0605 25.5215C73.8053 24.3704 74.1777 22.847 74.1777 20.9512C74.1777 18.5983 73.7292 16.7025 72.832 15.2637C71.9349 13.8079 70.75 13.0801 69.2773 13.0801C67.957 13.0801 66.8991 13.6641 66.1035 14.832C65.3079 15.9831 64.9102 17.5319 64.9102 19.4785C64.9102 21.7298 65.3926 23.5833 66.3574 25.0391C67.3223 26.4948 68.5495 27.2227 70.0391 27.2227ZM101.016 29.1523L94.541 13.6133L92.5098 12.9531L92.5859 11.3789H100.863L100.939 12.9531L98.8066 13.6133L103.377 25.2168H102.311L107.008 13.6133L104.9 12.9531L104.977 11.3789H111.527L111.604 12.9531L109.699 13.6133L102.488 29.1523H101.016ZM88.8281 29.1523L82.0234 13.6133L80.1191 12.9531L80.1953 11.3789H88.4727L88.5488 12.9531L86.5176 13.6133L91.3672 25.2168H90.1484L95.3027 13.3594L96.5469 15.9238L90.25 29.1523H88.8281Z" fill="white"/>
</g>
<defs>
<clipPath id="clip0_33_131">
<rect width="112" height="30" fill="white"/>
</clipPath>
</defs>
</svg>
